<?xml version="1.0" encoding="UTF-8"?>
<svg width="80px" height="120px" viewBox="0 0 80 120" version="1.1" xmlns="http://www.w3.org/2000/svg" xmlns:xlink="http://www.w3.org/1999/xlink">
    <!-- Generator: Sketch 42 (36781) - http://www.bohemiancoding.com/sketch -->
    <title>icon</title>
    <desc>Created with Sketch.</desc>
    <defs>
        <rect id="path-1" x="0" y="0" width="68" height="120" rx="10"></rect>
        <mask id="mask-2" maskContentUnits="userSpaceOnUse" maskUnits="objectBoundingBox" x="0" y="0" width="68" height="120" fill="white">
            <use xlink:href="#path-1"></use>
        </mask>
        <rect id="path-3" x="4" y="0" width="68" height="120" rx="10"></rect>
        <mask id="mask-4" maskContentUnits="userSpaceOnUse" maskUnits="objectBoundingBox" x="0" y="0" width="68" height="120" fill="white">
            <use xlink:href="#path-3"></use>
        </mask>
        <path d="M40,82 L74.9997976,82 C77.7568866,82 80,79.7571347 80,76.9904202 L80,35.0095798 C80,32.234375 77.7613332,30 74.9997976,30 L17.0002024,30 C14.2431134,30 12,32.2428653 12,35.0095798 L12,76.9904202 C12,79.765625 14.2386668,82 17.0002024,82 L20,82 L20,92 L40,82 Z" id="path-5"></path>
        <mask id="mask-6" maskContentUnits="userSpaceOnUse" maskUnits="objectBoundingBox" x="0" y="0" width="68" height="62" fill="white">
            <use xlink:href="#path-5"></use>
        </mask>
        <circle id="path-7" cx="30" cy="56" r="5"></circle>
        <mask id="mask-8" maskContentUnits="userSpaceOnUse" maskUnits="objectBoundingBox" x="0" y="0" width="10" height="10" fill="white">
            <use xlink:href="#path-7"></use>
        </mask>
        <circle id="path-9" cx="62" cy="56" r="5"></circle>
        <mask id="mask-10" maskContentUnits="userSpaceOnUse" maskUnits="objectBoundingBox" x="0" y="0" width="10" height="10" fill="white">
            <use xlink:href="#path-9"></use>
        </mask>
        <circle id="path-11" cx="46" cy="56" r="5"></circle>
        <mask id="mask-12" maskContentUnits="userSpaceOnUse" maskUnits="objectBoundingBox" x="0" y="0" width="10" height="10" fill="white">
            <use xlink:href="#path-11"></use>
        </mask>
        <circle id="path-13" cx="38" cy="109" r="5"></circle>
        <mask id="mask-14" maskContentUnits="userSpaceOnUse" maskUnits="objectBoundingBox" x="0" y="0" width="10" height="10" fill="white">
            <use xlink:href="#path-13"></use>
        </mask>
    </defs>
    <g id="Page-1" stroke="none" stroke-width="1" fill="none" fill-rule="evenodd">
        <g id="campaigns-01" transform="translate(-678.000000, -312.000000)">
            <g id="content" transform="translate(250.000000, 132.000000)">
                <g id="incentive" transform="translate(213.000000, 180.000000)">
                    <g id="icon" transform="translate(215.000000, 0.000000)">
                        <use id="Rectangle-3" stroke="#000000" mask="url(#mask-2)" stroke-width="4" fill="#EAEAEA" xlink:href="#path-1"></use>
                        <use id="Rectangle-3" stroke="#000000" mask="url(#mask-4)" stroke-width="4" fill="#FFFFFF" xlink:href="#path-3"></use>
                        <path d="M40,86 L70,86 L70,34 L12,34 L12,86 L20,86 L20,96 L40,86 Z" id="Combined-Shape" fill="#EAEAEA"></path>
                        <use id="Combined-Shape" stroke="#000000" mask="url(#mask-6)" stroke-width="4" fill="#FFFFFF" xlink:href="#path-5"></use>
                        <use id="Oval" stroke="#000000" mask="url(#mask-8)" stroke-width="4" fill="#EAEAEA" xlink:href="#path-7"></use>
                        <use id="Oval" stroke="#000000" mask="url(#mask-10)" stroke-width="4" fill="#EAEAEA" xlink:href="#path-9"></use>
                        <use id="Oval" stroke="#000000" mask="url(#mask-12)" stroke-width="4" fill="#EAEAEA" xlink:href="#path-11"></use>
                        <rect id="Rectangle-4" fill="#000000" x="2" y="98" width="69" height="2"></rect>
                        <rect id="Rectangle-4" fill="#000000" x="2" y="20" width="69" height="2"></rect>
                        <rect id="Rectangle-4" fill="#000000" x="29" y="10" width="18" height="2" rx="1"></rect>
                        <use id="Oval" stroke="#000000" mask="url(#mask-14)" stroke-width="4" fill="#EAEAEA" xlink:href="#path-13"></use>
                    </g>
                </g>
            </g>
        </g>
    </g>
</svg>