<?xml version="1.0" encoding="UTF-8"?>
<svg width="80px" height="120px" viewBox="0 0 80 120" version="1.1" xmlns="http://www.w3.org/2000/svg" xmlns:xlink="http://www.w3.org/1999/xlink">
    <!-- Generator: Sketch 42 (36781) - http://www.bohemiancoding.com/sketch -->
    <title>icon</title>
    <desc>Created with Sketch.</desc>
    <defs>
        <rect id="path-1" x="0" y="0" width="68" height="120" rx="10"></rect>
        <mask id="mask-2" maskContentUnits="userSpaceOnUse" maskUnits="objectBoundingBox" x="0" y="0" width="68" height="120" fill="white">
            <use xlink:href="#path-1"></use>
        </mask>
        <rect id="path-3" x="4" y="0" width="68" height="120" rx="10"></rect>
        <mask id="mask-4" maskContentUnits="userSpaceOnUse" maskUnits="objectBoundingBox" x="0" y="0" width="68" height="120" fill="white">
            <use xlink:href="#path-3"></use>
        </mask>
        <rect id="path-5" x="12" y="26" width="68" height="69" rx="5"></rect>
        <mask id="mask-6" maskContentUnits="userSpaceOnUse" maskUnits="objectBoundingBox" x="0" y="0" width="68" height="69" fill="white">
            <use xlink:href="#path-5"></use>
        </mask>
        <circle id="path-7" cx="7" cy="5" r="5"></circle>
        <mask id="mask-8" maskContentUnits="userSpaceOnUse" maskUnits="objectBoundingBox" x="0" y="0" width="10" height="10" fill="white">
            <use xlink:href="#path-7"></use>
        </mask>
        <path d="M0,15 C0,11.1340068 3.13400675,8 7,8 C10.8659932,8 14,11.1340068 14,15 L0,15 Z" id="path-9"></path>
        <mask id="mask-10" maskContentUnits="userSpaceOnUse" maskUnits="objectBoundingBox" x="0" y="0" width="14" height="7" fill="white">
            <use xlink:href="#path-9"></use>
        </mask>
        <circle id="path-11" cx="7" cy="5" r="5"></circle>
        <mask id="mask-12" maskContentUnits="userSpaceOnUse" maskUnits="objectBoundingBox" x="0" y="0" width="10" height="10" fill="white">
            <use xlink:href="#path-11"></use>
        </mask>
        <path d="M0,15 C0,11.1340068 3.13400675,8 7,8 C10.8659932,8 14,11.1340068 14,15 L0,15 Z" id="path-13"></path>
        <mask id="mask-14" maskContentUnits="userSpaceOnUse" maskUnits="objectBoundingBox" x="0" y="0" width="14" height="7" fill="white">
            <use xlink:href="#path-13"></use>
        </mask>
        <circle id="path-15" cx="7" cy="5" r="5"></circle>
        <mask id="mask-16" maskContentUnits="userSpaceOnUse" maskUnits="objectBoundingBox" x="0" y="0" width="10" height="10" fill="white">
            <use xlink:href="#path-15"></use>
        </mask>
        <path d="M0,15 C0,11.1340068 3.13400675,8 7,8 C10.8659932,8 14,11.1340068 14,15 L0,15 Z" id="path-17"></path>
        <mask id="mask-18" maskContentUnits="userSpaceOnUse" maskUnits="objectBoundingBox" x="0" y="0" width="14" height="7" fill="white">
            <use xlink:href="#path-17"></use>
        </mask>
        <circle id="path-19" cx="38" cy="109" r="5"></circle>
        <mask id="mask-20" maskContentUnits="userSpaceOnUse" maskUnits="objectBoundingBox" x="0" y="0" width="10" height="10" fill="white">
            <use xlink:href="#path-19"></use>
        </mask>
    </defs>
    <g id="Page-1" stroke="none" stroke-width="1" fill="none" fill-rule="evenodd">
        <g id="list-empty" transform="translate(-678.000000, -312.000000)">
            <g id="content" transform="translate(250.000000, 132.000000)">
                <g id="incentive" transform="translate(201.000000, 180.000000)">
                    <g id="icon" transform="translate(227.000000, 0.000000)">
                        <use id="Rectangle-3" stroke="#000000" mask="url(#mask-2)" stroke-width="4" fill="#EAEAEA" xlink:href="#path-1"></use>
                        <use id="Rectangle-3" stroke="#000000" mask="url(#mask-4)" stroke-width="4" fill="#FFFFFF" xlink:href="#path-3"></use>
                        <use id="Combined-Shape" stroke="#000000" mask="url(#mask-6)" stroke-width="4" fill="#FFFFFF" xlink:href="#path-5"></use>
                        <g id="user" transform="translate(21.000000, 34.000000)">
                            <use id="Oval" stroke="#000000" mask="url(#mask-8)" stroke-width="4" fill="#EAEAEA" xlink:href="#path-7"></use>
                            <rect id="Rectangle-4" fill="#000000" x="17" y="5" width="28" height="2" rx="1"></rect>
                            <rect id="Rectangle-4" fill="#000000" x="17" y="10" width="18" height="2" rx="1"></rect>
                            <use id="Combined-Shape" stroke="#000000" mask="url(#mask-10)" stroke-width="4" fill="#EAEAEA" xlink:href="#path-9"></use>
                        </g>
                        <g id="user" transform="translate(21.000000, 53.000000)">
                            <use id="Oval" stroke="#000000" mask="url(#mask-12)" stroke-width="4" fill="#EAEAEA" xlink:href="#path-11"></use>
                            <rect id="Rectangle-4" fill="#000000" x="17" y="5" width="28" height="2" rx="1"></rect>
                            <rect id="Rectangle-4" fill="#000000" x="17" y="10" width="18" height="2" rx="1"></rect>
                            <use id="Combined-Shape" stroke="#000000" mask="url(#mask-14)" stroke-width="4" fill="#EAEAEA" xlink:href="#path-13"></use>
                        </g>
                        <g id="user" transform="translate(21.000000, 72.000000)">
                            <use id="Oval" stroke="#000000" mask="url(#mask-16)" stroke-width="4" fill="#EAEAEA" xlink:href="#path-15"></use>
                            <rect id="Rectangle-4" fill="#000000" x="17" y="5" width="28" height="2" rx="1"></rect>
                            <rect id="Rectangle-4" fill="#000000" x="17" y="10" width="18" height="2" rx="1"></rect>
                            <use id="Combined-Shape" stroke="#000000" mask="url(#mask-18)" stroke-width="4" fill="#EAEAEA" xlink:href="#path-17"></use>
                        </g>
                        <rect id="Rectangle-4" fill="#000000" x="2" y="98" width="69" height="2"></rect>
                        <rect id="Rectangle-4" fill="#000000" x="2" y="20" width="69" height="2"></rect>
                        <rect id="Rectangle-4" fill="#000000" x="29" y="10" width="18" height="2" rx="1"></rect>
                        <use id="Oval" stroke="#000000" mask="url(#mask-20)" stroke-width="4" fill="#EAEAEA" xlink:href="#path-19"></use>
                    </g>
                </g>
            </g>
        </g>
    </g>
</svg>