<?xml version="1.0" encoding="UTF-8"?>
<svg width="34px" height="34px" viewBox="0 0 34 34" version="1.1" xmlns="http://www.w3.org/2000/svg" xmlns:xlink="http://www.w3.org/1999/xlink">
    <!-- Generator: Sketch 42 (36781) - http://www.bohemiancoding.com/sketch -->
    <title>schedule</title>
    <desc>Created with Sketch.</desc>
    <defs>
        <circle id="path-1" cx="17" cy="17" r="17"></circle>
        <mask id="mask-2" maskContentUnits="userSpaceOnUse" maskUnits="objectBoundingBox" x="0" y="0" width="34" height="34" fill="white">
            <use xlink:href="#path-1"></use>
        </mask>
        <rect id="path-3" x="10" y="13" width="14" height="11"></rect>
        <mask id="mask-4" maskContentUnits="userSpaceOnUse" maskUnits="objectBoundingBox" x="0" y="0" width="14" height="11" fill="white">
            <use xlink:href="#path-3"></use>
        </mask>
    </defs>
    <g id="Page-1" stroke="none" stroke-width="1" fill="none" fill-rule="evenodd">
        <g id="campaigns-index" transform="translate(-274.000000, -323.000000)">
            <g id="item" transform="translate(250.000000, 290.000000)">
                <g id="schedule" transform="translate(24.000000, 33.000000)">
                    <use id="bg" stroke="#24CC83" mask="url(#mask-2)" stroke-width="4" fill="#FFFFFF" xlink:href="#path-1"></use>
                    <path d="M23,10 L24,10 L24,12 L10,12 L10,10 L11,10 L11,9 L13,9 L13,10 L21,10 L21,9 L23,9 L23,10 Z" id="Combined-Shape" fill="#24CC83"></path>
                    <use id="bg" stroke="#24CC83" mask="url(#mask-4)" stroke-width="4" fill="#FFFFFF" xlink:href="#path-3"></use>
                    <rect id="bg" fill="#24CC83" x="13" y="16" width="2" height="2"></rect>
                    <rect id="bg" fill="#24CC83" x="16" y="16" width="2" height="2"></rect>
                    <rect id="bg" fill="#24CC83" x="19" y="16" width="2" height="2"></rect>
                    <rect id="bg" fill="#24CC83" x="13" y="19" width="2" height="2"></rect>
                    <rect id="bg" fill="#24CC83" x="16" y="19" width="2" height="2"></rect>
                    <rect id="bg" fill="#24CC83" x="19" y="19" width="2" height="2"></rect>
                </g>
            </g>
        </g>
    </g>
</svg>